<mxfile host="Electron" modified="2023-06-05T05:08:14.737Z" agent="Mozilla/5.0 (Macintosh; Intel Mac OS X 10_15_7) AppleWebKit/537.36 (KHTML, like Gecko) draw.io/21.2.8 Chrome/112.0.5615.165 Electron/24.2.0 Safari/537.36" etag="QQra3J0rW2ilKUcVgUvb" version="21.2.8" type="device">
  <diagram id="tB9N7z93DK2bXvOsxN_O" name="AWS-Batch-Project">
    <mxGraphModel dx="1172" dy="840" grid="1" gridSize="10" guides="1" tooltips="1" connect="1" arrows="1" fold="1" page="1" pageScale="1" pageWidth="850" pageHeight="1100" math="0" shadow="0">
      <root>
        <mxCell id="0" />
        <mxCell id="1" parent="0" />
        <mxCell id="f5VFy4xdmkrR8hIV67l6-42" value="Compute Environment 3" style="rounded=0;whiteSpace=wrap;html=1;fillColor=none;strokeColor=#f78e04;verticalAlign=top;" parent="1" vertex="1">
          <mxGeometry x="560" y="760" width="440" height="280" as="geometry" />
        </mxCell>
        <mxCell id="f5VFy4xdmkrR8hIV67l6-28" value="Compute Environment 2" style="rounded=0;whiteSpace=wrap;html=1;fillColor=none;strokeColor=#f78e04;verticalAlign=top;" parent="1" vertex="1">
          <mxGeometry x="560" y="440" width="440" height="280" as="geometry" />
        </mxCell>
        <mxCell id="f5VFy4xdmkrR8hIV67l6-14" value="Compute Environment 1" style="rounded=0;whiteSpace=wrap;html=1;fillColor=none;strokeColor=#f78e04;verticalAlign=top;" parent="1" vertex="1">
          <mxGeometry x="560" y="120" width="440" height="280" as="geometry" />
        </mxCell>
        <mxCell id="iDCPznZTxbQUSvZ_fjzk-4" value="Job Def 1&lt;br&gt;1 vCPU" style="sketch=0;outlineConnect=0;fillColor=#1ba1e2;strokeColor=#006EAF;dashed=0;verticalLabelPosition=bottom;verticalAlign=top;align=center;html=1;fontSize=12;fontStyle=0;pointerEvents=1;shape=mxgraph.aws4.template;fontColor=#000000;" parent="1" vertex="1">
          <mxGeometry x="80" y="360" width="80" height="80" as="geometry" />
        </mxCell>
        <mxCell id="1qJ0nzabCPj52N4ypJyl-1" value="" style="sketch=0;points=[[0,0,0],[0.25,0,0],[0.5,0,0],[0.75,0,0],[1,0,0],[0,1,0],[0.25,1,0],[0.5,1,0],[0.75,1,0],[1,1,0],[0,0.25,0],[0,0.5,0],[0,0.75,0],[1,0.25,0],[1,0.5,0],[1,0.75,0]];outlineConnect=0;fontColor=#232F3E;gradientColor=#F78E04;gradientDirection=north;fillColor=#D05C17;strokeColor=#ffffff;dashed=0;verticalLabelPosition=bottom;verticalAlign=top;align=center;html=1;fontSize=12;fontStyle=0;aspect=fixed;shape=mxgraph.aws4.resourceIcon;resIcon=mxgraph.aws4.fargate;" parent="1" vertex="1">
          <mxGeometry x="560" y="120" width="40" height="40" as="geometry" />
        </mxCell>
        <mxCell id="f5VFy4xdmkrR8hIV67l6-1" value="" style="pointerEvents=1;shadow=0;dashed=0;html=1;strokeColor=#B20000;fillColor=#e51400;labelPosition=center;verticalLabelPosition=bottom;verticalAlign=top;align=center;outlineConnect=0;shape=mxgraph.veeam.cpu;fontColor=#ffffff;" parent="1" vertex="1">
          <mxGeometry x="640" y="160" width="40" height="40" as="geometry" />
        </mxCell>
        <mxCell id="f5VFy4xdmkrR8hIV67l6-2" value="" style="pointerEvents=1;shadow=0;dashed=0;html=1;strokeColor=#B20000;fillColor=#e51400;labelPosition=center;verticalLabelPosition=bottom;verticalAlign=top;align=center;outlineConnect=0;shape=mxgraph.veeam.cpu;fontColor=#ffffff;" parent="1" vertex="1">
          <mxGeometry x="720" y="160" width="40" height="40" as="geometry" />
        </mxCell>
        <mxCell id="f5VFy4xdmkrR8hIV67l6-3" value="" style="pointerEvents=1;shadow=0;dashed=0;html=1;strokeColor=#B20000;fillColor=#e51400;labelPosition=center;verticalLabelPosition=bottom;verticalAlign=top;align=center;outlineConnect=0;shape=mxgraph.veeam.cpu;fontColor=#ffffff;" parent="1" vertex="1">
          <mxGeometry x="800" y="160" width="40" height="40" as="geometry" />
        </mxCell>
        <mxCell id="f5VFy4xdmkrR8hIV67l6-4" value="" style="pointerEvents=1;shadow=0;dashed=0;html=1;strokeColor=#B20000;fillColor=#e51400;labelPosition=center;verticalLabelPosition=bottom;verticalAlign=top;align=center;outlineConnect=0;shape=mxgraph.veeam.cpu;fontColor=#ffffff;" parent="1" vertex="1">
          <mxGeometry x="640" y="240" width="40" height="40" as="geometry" />
        </mxCell>
        <mxCell id="f5VFy4xdmkrR8hIV67l6-5" value="" style="pointerEvents=1;shadow=0;dashed=0;html=1;strokeColor=#B20000;fillColor=#e51400;labelPosition=center;verticalLabelPosition=bottom;verticalAlign=top;align=center;outlineConnect=0;shape=mxgraph.veeam.cpu;fontColor=#ffffff;" parent="1" vertex="1">
          <mxGeometry x="720" y="240" width="40" height="40" as="geometry" />
        </mxCell>
        <mxCell id="f5VFy4xdmkrR8hIV67l6-6" value="" style="pointerEvents=1;shadow=0;dashed=0;html=1;strokeColor=#B20000;fillColor=#e51400;labelPosition=center;verticalLabelPosition=bottom;verticalAlign=top;align=center;outlineConnect=0;shape=mxgraph.veeam.cpu;fontColor=#ffffff;" parent="1" vertex="1">
          <mxGeometry x="800" y="240" width="40" height="40" as="geometry" />
        </mxCell>
        <mxCell id="f5VFy4xdmkrR8hIV67l6-7" value="" style="pointerEvents=1;shadow=0;dashed=0;html=1;strokeColor=#2D7600;fillColor=#60a917;labelPosition=center;verticalLabelPosition=bottom;verticalAlign=top;align=center;outlineConnect=0;shape=mxgraph.veeam.cpu;fontColor=#ffffff;" parent="1" vertex="1">
          <mxGeometry x="640" y="320" width="40" height="40" as="geometry" />
        </mxCell>
        <mxCell id="f5VFy4xdmkrR8hIV67l6-8" value="" style="pointerEvents=1;shadow=0;dashed=0;html=1;strokeColor=#2D7600;fillColor=#60a917;labelPosition=center;verticalLabelPosition=bottom;verticalAlign=top;align=center;outlineConnect=0;shape=mxgraph.veeam.cpu;fontColor=#ffffff;" parent="1" vertex="1">
          <mxGeometry x="720" y="320" width="40" height="40" as="geometry" />
        </mxCell>
        <mxCell id="f5VFy4xdmkrR8hIV67l6-9" value="" style="pointerEvents=1;shadow=0;dashed=0;html=1;strokeColor=#2D7600;fillColor=#60a917;labelPosition=center;verticalLabelPosition=bottom;verticalAlign=top;align=center;outlineConnect=0;shape=mxgraph.veeam.cpu;fontColor=#ffffff;" parent="1" vertex="1">
          <mxGeometry x="800" y="320" width="40" height="40" as="geometry" />
        </mxCell>
        <mxCell id="f5VFy4xdmkrR8hIV67l6-10" value="" style="pointerEvents=1;shadow=0;dashed=0;html=1;strokeColor=#B20000;fillColor=#e51400;labelPosition=center;verticalLabelPosition=bottom;verticalAlign=top;align=center;outlineConnect=0;shape=mxgraph.veeam.cpu;fontColor=#ffffff;" parent="1" vertex="1">
          <mxGeometry x="880" y="160" width="40" height="40" as="geometry" />
        </mxCell>
        <mxCell id="f5VFy4xdmkrR8hIV67l6-11" value="" style="pointerEvents=1;shadow=0;dashed=0;html=1;strokeColor=#B20000;fillColor=#e51400;labelPosition=center;verticalLabelPosition=bottom;verticalAlign=top;align=center;outlineConnect=0;shape=mxgraph.veeam.cpu;fontColor=#ffffff;" parent="1" vertex="1">
          <mxGeometry x="880" y="240" width="40" height="40" as="geometry" />
        </mxCell>
        <mxCell id="f5VFy4xdmkrR8hIV67l6-12" value="" style="pointerEvents=1;shadow=0;dashed=0;html=1;strokeColor=#2D7600;fillColor=#60a917;labelPosition=center;verticalLabelPosition=bottom;verticalAlign=top;align=center;outlineConnect=0;shape=mxgraph.veeam.cpu;fontColor=#ffffff;" parent="1" vertex="1">
          <mxGeometry x="880" y="320" width="40" height="40" as="geometry" />
        </mxCell>
        <mxCell id="f5VFy4xdmkrR8hIV67l6-15" value="" style="sketch=0;points=[[0,0,0],[0.25,0,0],[0.5,0,0],[0.75,0,0],[1,0,0],[0,1,0],[0.25,1,0],[0.5,1,0],[0.75,1,0],[1,1,0],[0,0.25,0],[0,0.5,0],[0,0.75,0],[1,0.25,0],[1,0.5,0],[1,0.75,0]];outlineConnect=0;fontColor=#232F3E;gradientColor=#F78E04;gradientDirection=north;fillColor=#D05C17;strokeColor=#ffffff;dashed=0;verticalLabelPosition=bottom;verticalAlign=top;align=center;html=1;fontSize=12;fontStyle=0;aspect=fixed;shape=mxgraph.aws4.resourceIcon;resIcon=mxgraph.aws4.fargate;" parent="1" vertex="1">
          <mxGeometry x="560" y="440" width="40" height="40" as="geometry" />
        </mxCell>
        <mxCell id="f5VFy4xdmkrR8hIV67l6-16" value="" style="pointerEvents=1;shadow=0;dashed=0;html=1;strokeColor=#B20000;fillColor=#e51400;labelPosition=center;verticalLabelPosition=bottom;verticalAlign=top;align=center;outlineConnect=0;shape=mxgraph.veeam.cpu;fontColor=#ffffff;" parent="1" vertex="1">
          <mxGeometry x="640" y="480" width="40" height="40" as="geometry" />
        </mxCell>
        <mxCell id="f5VFy4xdmkrR8hIV67l6-17" value="" style="pointerEvents=1;shadow=0;dashed=0;html=1;strokeColor=#B20000;fillColor=#e51400;labelPosition=center;verticalLabelPosition=bottom;verticalAlign=top;align=center;outlineConnect=0;shape=mxgraph.veeam.cpu;fontColor=#ffffff;" parent="1" vertex="1">
          <mxGeometry x="720" y="480" width="40" height="40" as="geometry" />
        </mxCell>
        <mxCell id="f5VFy4xdmkrR8hIV67l6-18" value="" style="pointerEvents=1;shadow=0;dashed=0;html=1;strokeColor=#B20000;fillColor=#e51400;labelPosition=center;verticalLabelPosition=bottom;verticalAlign=top;align=center;outlineConnect=0;shape=mxgraph.veeam.cpu;fontColor=#ffffff;" parent="1" vertex="1">
          <mxGeometry x="800" y="480" width="40" height="40" as="geometry" />
        </mxCell>
        <mxCell id="f5VFy4xdmkrR8hIV67l6-19" value="" style="pointerEvents=1;shadow=0;dashed=0;html=1;strokeColor=#B20000;fillColor=#e51400;labelPosition=center;verticalLabelPosition=bottom;verticalAlign=top;align=center;outlineConnect=0;shape=mxgraph.veeam.cpu;fontColor=#ffffff;" parent="1" vertex="1">
          <mxGeometry x="640" y="560" width="40" height="40" as="geometry" />
        </mxCell>
        <mxCell id="f5VFy4xdmkrR8hIV67l6-20" value="" style="pointerEvents=1;shadow=0;dashed=0;html=1;strokeColor=#B20000;fillColor=#e51400;labelPosition=center;verticalLabelPosition=bottom;verticalAlign=top;align=center;outlineConnect=0;shape=mxgraph.veeam.cpu;fontColor=#ffffff;" parent="1" vertex="1">
          <mxGeometry x="720" y="560" width="40" height="40" as="geometry" />
        </mxCell>
        <mxCell id="f5VFy4xdmkrR8hIV67l6-21" value="" style="pointerEvents=1;shadow=0;dashed=0;html=1;strokeColor=#2D7600;fillColor=#60a917;labelPosition=center;verticalLabelPosition=bottom;verticalAlign=top;align=center;outlineConnect=0;shape=mxgraph.veeam.cpu;fontColor=#ffffff;" parent="1" vertex="1">
          <mxGeometry x="800" y="560" width="40" height="40" as="geometry" />
        </mxCell>
        <mxCell id="f5VFy4xdmkrR8hIV67l6-22" value="" style="pointerEvents=1;shadow=0;dashed=0;html=1;strokeColor=#2D7600;fillColor=#60a917;labelPosition=center;verticalLabelPosition=bottom;verticalAlign=top;align=center;outlineConnect=0;shape=mxgraph.veeam.cpu;fontColor=#ffffff;" parent="1" vertex="1">
          <mxGeometry x="640" y="640" width="40" height="40" as="geometry" />
        </mxCell>
        <mxCell id="f5VFy4xdmkrR8hIV67l6-23" value="" style="pointerEvents=1;shadow=0;dashed=0;html=1;strokeColor=#2D7600;fillColor=#60a917;labelPosition=center;verticalLabelPosition=bottom;verticalAlign=top;align=center;outlineConnect=0;shape=mxgraph.veeam.cpu;fontColor=#ffffff;" parent="1" vertex="1">
          <mxGeometry x="720" y="640" width="40" height="40" as="geometry" />
        </mxCell>
        <mxCell id="f5VFy4xdmkrR8hIV67l6-24" value="" style="pointerEvents=1;shadow=0;dashed=0;html=1;strokeColor=#2D7600;fillColor=#60a917;labelPosition=center;verticalLabelPosition=bottom;verticalAlign=top;align=center;outlineConnect=0;shape=mxgraph.veeam.cpu;fontColor=#ffffff;" parent="1" vertex="1">
          <mxGeometry x="800" y="640" width="40" height="40" as="geometry" />
        </mxCell>
        <mxCell id="f5VFy4xdmkrR8hIV67l6-25" value="" style="pointerEvents=1;shadow=0;dashed=0;html=1;strokeColor=#B20000;fillColor=#e51400;labelPosition=center;verticalLabelPosition=bottom;verticalAlign=top;align=center;outlineConnect=0;shape=mxgraph.veeam.cpu;fontColor=#ffffff;" parent="1" vertex="1">
          <mxGeometry x="880" y="480" width="40" height="40" as="geometry" />
        </mxCell>
        <mxCell id="f5VFy4xdmkrR8hIV67l6-26" value="" style="pointerEvents=1;shadow=0;dashed=0;html=1;strokeColor=#2D7600;fillColor=#60a917;labelPosition=center;verticalLabelPosition=bottom;verticalAlign=top;align=center;outlineConnect=0;shape=mxgraph.veeam.cpu;fontColor=#ffffff;" parent="1" vertex="1">
          <mxGeometry x="880" y="560" width="40" height="40" as="geometry" />
        </mxCell>
        <mxCell id="f5VFy4xdmkrR8hIV67l6-27" value="" style="pointerEvents=1;shadow=0;dashed=0;html=1;strokeColor=#2D7600;fillColor=#60a917;labelPosition=center;verticalLabelPosition=bottom;verticalAlign=top;align=center;outlineConnect=0;shape=mxgraph.veeam.cpu;fontColor=#ffffff;" parent="1" vertex="1">
          <mxGeometry x="880" y="640" width="40" height="40" as="geometry" />
        </mxCell>
        <mxCell id="f5VFy4xdmkrR8hIV67l6-29" value="" style="sketch=0;points=[[0,0,0],[0.25,0,0],[0.5,0,0],[0.75,0,0],[1,0,0],[0,1,0],[0.25,1,0],[0.5,1,0],[0.75,1,0],[1,1,0],[0,0.25,0],[0,0.5,0],[0,0.75,0],[1,0.25,0],[1,0.5,0],[1,0.75,0]];outlineConnect=0;fontColor=#232F3E;gradientColor=#F78E04;gradientDirection=north;fillColor=#D05C17;strokeColor=#ffffff;dashed=0;verticalLabelPosition=bottom;verticalAlign=top;align=center;html=1;fontSize=12;fontStyle=0;aspect=fixed;shape=mxgraph.aws4.resourceIcon;resIcon=mxgraph.aws4.fargate;" parent="1" vertex="1">
          <mxGeometry x="560" y="760" width="40" height="40" as="geometry" />
        </mxCell>
        <mxCell id="f5VFy4xdmkrR8hIV67l6-30" value="" style="pointerEvents=1;shadow=0;dashed=0;html=1;strokeColor=#B20000;fillColor=#e51400;labelPosition=center;verticalLabelPosition=bottom;verticalAlign=top;align=center;outlineConnect=0;shape=mxgraph.veeam.cpu;fontColor=#ffffff;" parent="1" vertex="1">
          <mxGeometry x="640" y="800" width="40" height="40" as="geometry" />
        </mxCell>
        <mxCell id="f5VFy4xdmkrR8hIV67l6-31" value="" style="pointerEvents=1;shadow=0;dashed=0;html=1;strokeColor=#B20000;fillColor=#e51400;labelPosition=center;verticalLabelPosition=bottom;verticalAlign=top;align=center;outlineConnect=0;shape=mxgraph.veeam.cpu;fontColor=#ffffff;" parent="1" vertex="1">
          <mxGeometry x="720" y="800" width="40" height="40" as="geometry" />
        </mxCell>
        <mxCell id="f5VFy4xdmkrR8hIV67l6-32" value="" style="pointerEvents=1;shadow=0;dashed=0;html=1;strokeColor=#B20000;fillColor=#e51400;labelPosition=center;verticalLabelPosition=bottom;verticalAlign=top;align=center;outlineConnect=0;shape=mxgraph.veeam.cpu;fontColor=#ffffff;" parent="1" vertex="1">
          <mxGeometry x="800" y="800" width="40" height="40" as="geometry" />
        </mxCell>
        <mxCell id="f5VFy4xdmkrR8hIV67l6-33" value="" style="pointerEvents=1;shadow=0;dashed=0;html=1;strokeColor=#2D7600;fillColor=#60a917;labelPosition=center;verticalLabelPosition=bottom;verticalAlign=top;align=center;outlineConnect=0;shape=mxgraph.veeam.cpu;fontColor=#ffffff;" parent="1" vertex="1">
          <mxGeometry x="640" y="880" width="40" height="40" as="geometry" />
        </mxCell>
        <mxCell id="f5VFy4xdmkrR8hIV67l6-34" value="" style="pointerEvents=1;shadow=0;dashed=0;html=1;strokeColor=#2D7600;fillColor=#60a917;labelPosition=center;verticalLabelPosition=bottom;verticalAlign=top;align=center;outlineConnect=0;shape=mxgraph.veeam.cpu;fontColor=#ffffff;" parent="1" vertex="1">
          <mxGeometry x="720" y="880" width="40" height="40" as="geometry" />
        </mxCell>
        <mxCell id="f5VFy4xdmkrR8hIV67l6-35" value="" style="pointerEvents=1;shadow=0;dashed=0;html=1;strokeColor=#2D7600;fillColor=#60a917;labelPosition=center;verticalLabelPosition=bottom;verticalAlign=top;align=center;outlineConnect=0;shape=mxgraph.veeam.cpu;fontColor=#ffffff;" parent="1" vertex="1">
          <mxGeometry x="800" y="880" width="40" height="40" as="geometry" />
        </mxCell>
        <mxCell id="f5VFy4xdmkrR8hIV67l6-36" value="" style="pointerEvents=1;shadow=0;dashed=0;html=1;strokeColor=#2D7600;fillColor=#60a917;labelPosition=center;verticalLabelPosition=bottom;verticalAlign=top;align=center;outlineConnect=0;shape=mxgraph.veeam.cpu;fontColor=#ffffff;" parent="1" vertex="1">
          <mxGeometry x="640" y="960" width="40" height="40" as="geometry" />
        </mxCell>
        <mxCell id="f5VFy4xdmkrR8hIV67l6-37" value="" style="pointerEvents=1;shadow=0;dashed=0;html=1;strokeColor=#2D7600;fillColor=#60a917;labelPosition=center;verticalLabelPosition=bottom;verticalAlign=top;align=center;outlineConnect=0;shape=mxgraph.veeam.cpu;fontColor=#ffffff;" parent="1" vertex="1">
          <mxGeometry x="720" y="960" width="40" height="40" as="geometry" />
        </mxCell>
        <mxCell id="f5VFy4xdmkrR8hIV67l6-38" value="" style="pointerEvents=1;shadow=0;dashed=0;html=1;strokeColor=#2D7600;fillColor=#60a917;labelPosition=center;verticalLabelPosition=bottom;verticalAlign=top;align=center;outlineConnect=0;shape=mxgraph.veeam.cpu;fontColor=#ffffff;" parent="1" vertex="1">
          <mxGeometry x="800" y="960" width="40" height="40" as="geometry" />
        </mxCell>
        <mxCell id="f5VFy4xdmkrR8hIV67l6-39" value="" style="pointerEvents=1;shadow=0;dashed=0;html=1;strokeColor=#B20000;fillColor=#e51400;labelPosition=center;verticalLabelPosition=bottom;verticalAlign=top;align=center;outlineConnect=0;shape=mxgraph.veeam.cpu;fontColor=#ffffff;" parent="1" vertex="1">
          <mxGeometry x="880" y="800" width="40" height="40" as="geometry" />
        </mxCell>
        <mxCell id="f5VFy4xdmkrR8hIV67l6-40" value="" style="pointerEvents=1;shadow=0;dashed=0;html=1;strokeColor=#2D7600;fillColor=#60a917;labelPosition=center;verticalLabelPosition=bottom;verticalAlign=top;align=center;outlineConnect=0;shape=mxgraph.veeam.cpu;fontColor=#ffffff;" parent="1" vertex="1">
          <mxGeometry x="880" y="880" width="40" height="40" as="geometry" />
        </mxCell>
        <mxCell id="f5VFy4xdmkrR8hIV67l6-41" value="" style="pointerEvents=1;shadow=0;dashed=0;html=1;strokeColor=#2D7600;fillColor=#60a917;labelPosition=center;verticalLabelPosition=bottom;verticalAlign=top;align=center;outlineConnect=0;shape=mxgraph.veeam.cpu;fontColor=#ffffff;" parent="1" vertex="1">
          <mxGeometry x="880" y="960" width="40" height="40" as="geometry" />
        </mxCell>
        <mxCell id="f5VFy4xdmkrR8hIV67l6-47" style="edgeStyle=orthogonalEdgeStyle;rounded=0;orthogonalLoop=1;jettySize=auto;html=1;exitX=1;exitY=0.5;exitDx=0;exitDy=0;exitPerimeter=0;entryX=0.5;entryY=1;entryDx=0;entryDy=0;endArrow=none;endFill=0;" parent="1" source="f5VFy4xdmkrR8hIV67l6-43" target="f5VFy4xdmkrR8hIV67l6-14" edge="1">
          <mxGeometry relative="1" as="geometry" />
        </mxCell>
        <mxCell id="f5VFy4xdmkrR8hIV67l6-48" style="edgeStyle=orthogonalEdgeStyle;rounded=0;orthogonalLoop=1;jettySize=auto;html=1;exitX=1;exitY=0.5;exitDx=0;exitDy=0;exitPerimeter=0;entryX=0.5;entryY=0;entryDx=0;entryDy=0;endArrow=none;endFill=0;" parent="1" source="f5VFy4xdmkrR8hIV67l6-43" target="f5VFy4xdmkrR8hIV67l6-28" edge="1">
          <mxGeometry relative="1" as="geometry" />
        </mxCell>
        <mxCell id="f5VFy4xdmkrR8hIV67l6-43" value="Job Queue 1&lt;br&gt;P1" style="outlineConnect=0;dashed=0;verticalLabelPosition=bottom;verticalAlign=top;align=center;html=1;shape=mxgraph.aws3.queue;fillColor=#f78e04;gradientColor=none;" parent="1" vertex="1">
          <mxGeometry x="320" y="400" width="80" height="40" as="geometry" />
        </mxCell>
        <mxCell id="f5VFy4xdmkrR8hIV67l6-44" value="Job Def 2&lt;br&gt;2 vCPU" style="sketch=0;outlineConnect=0;fontColor=#000000;fillColor=#e3c800;strokeColor=#B09500;dashed=0;verticalLabelPosition=bottom;verticalAlign=top;align=center;html=1;fontSize=12;fontStyle=0;pointerEvents=1;shape=mxgraph.aws4.template;" parent="1" vertex="1">
          <mxGeometry x="80" y="680" width="80" height="80" as="geometry" />
        </mxCell>
        <mxCell id="f5VFy4xdmkrR8hIV67l6-49" style="edgeStyle=orthogonalEdgeStyle;rounded=0;orthogonalLoop=1;jettySize=auto;html=1;exitX=1;exitY=0.5;exitDx=0;exitDy=0;exitPerimeter=0;entryX=0.5;entryY=1;entryDx=0;entryDy=0;endArrow=none;endFill=0;" parent="1" source="f5VFy4xdmkrR8hIV67l6-45" target="f5VFy4xdmkrR8hIV67l6-28" edge="1">
          <mxGeometry relative="1" as="geometry" />
        </mxCell>
        <mxCell id="f5VFy4xdmkrR8hIV67l6-50" style="edgeStyle=orthogonalEdgeStyle;rounded=0;orthogonalLoop=1;jettySize=auto;html=1;exitX=1;exitY=0.5;exitDx=0;exitDy=0;exitPerimeter=0;entryX=0.5;entryY=0;entryDx=0;entryDy=0;endArrow=none;endFill=0;" parent="1" source="f5VFy4xdmkrR8hIV67l6-45" target="f5VFy4xdmkrR8hIV67l6-42" edge="1">
          <mxGeometry relative="1" as="geometry" />
        </mxCell>
        <mxCell id="f5VFy4xdmkrR8hIV67l6-45" value="Job Queue 2&lt;br&gt;P2" style="outlineConnect=0;dashed=0;verticalLabelPosition=bottom;verticalAlign=top;align=center;html=1;shape=mxgraph.aws3.queue;fillColor=#f78e04;gradientColor=none;" parent="1" vertex="1">
          <mxGeometry x="320" y="720" width="80" height="40" as="geometry" />
        </mxCell>
        <mxCell id="f5VFy4xdmkrR8hIV67l6-60" style="edgeStyle=orthogonalEdgeStyle;rounded=0;orthogonalLoop=1;jettySize=auto;html=1;exitX=0.5;exitY=1;exitDx=0;exitDy=0;" parent="1" source="f5VFy4xdmkrR8hIV67l6-51" target="f5VFy4xdmkrR8hIV67l6-22" edge="1">
          <mxGeometry relative="1" as="geometry">
            <Array as="points">
              <mxPoint x="300" y="700" />
              <mxPoint x="660" y="700" />
            </Array>
          </mxGeometry>
        </mxCell>
        <mxCell id="f5VFy4xdmkrR8hIV67l6-51" value="1" style="whiteSpace=wrap;html=1;aspect=fixed;fillColor=#1ba1e2;fontColor=#ffffff;strokeColor=#006EAF;" parent="1" vertex="1">
          <mxGeometry x="280" y="640" width="40" height="40" as="geometry" />
        </mxCell>
        <mxCell id="f5VFy4xdmkrR8hIV67l6-63" style="edgeStyle=orthogonalEdgeStyle;rounded=0;orthogonalLoop=1;jettySize=auto;html=1;exitX=0.5;exitY=1;exitDx=0;exitDy=0;" parent="1" source="f5VFy4xdmkrR8hIV67l6-52" target="f5VFy4xdmkrR8hIV67l6-8" edge="1">
          <mxGeometry relative="1" as="geometry">
            <Array as="points">
              <mxPoint x="300" y="380" />
              <mxPoint x="740" y="380" />
            </Array>
          </mxGeometry>
        </mxCell>
        <mxCell id="f5VFy4xdmkrR8hIV67l6-64" style="edgeStyle=orthogonalEdgeStyle;rounded=0;orthogonalLoop=1;jettySize=auto;html=1;exitX=0.5;exitY=1;exitDx=0;exitDy=0;" parent="1" source="f5VFy4xdmkrR8hIV67l6-52" target="f5VFy4xdmkrR8hIV67l6-9" edge="1">
          <mxGeometry relative="1" as="geometry">
            <Array as="points">
              <mxPoint x="300" y="380" />
              <mxPoint x="820" y="380" />
            </Array>
          </mxGeometry>
        </mxCell>
        <mxCell id="f5VFy4xdmkrR8hIV67l6-52" value="2" style="whiteSpace=wrap;html=1;aspect=fixed;fillColor=#e3c800;fontColor=#000000;strokeColor=#B09500;" parent="1" vertex="1">
          <mxGeometry x="280" y="320" width="40" height="40" as="geometry" />
        </mxCell>
        <mxCell id="f5VFy4xdmkrR8hIV67l6-62" style="edgeStyle=orthogonalEdgeStyle;rounded=0;orthogonalLoop=1;jettySize=auto;html=1;exitX=1;exitY=0.5;exitDx=0;exitDy=0;" parent="1" source="f5VFy4xdmkrR8hIV67l6-53" target="f5VFy4xdmkrR8hIV67l6-7" edge="1">
          <mxGeometry relative="1" as="geometry" />
        </mxCell>
        <mxCell id="f5VFy4xdmkrR8hIV67l6-53" value="1" style="whiteSpace=wrap;html=1;aspect=fixed;fillColor=#1ba1e2;fontColor=#ffffff;strokeColor=#006EAF;" parent="1" vertex="1">
          <mxGeometry x="360" y="320" width="40" height="40" as="geometry" />
        </mxCell>
        <mxCell id="f5VFy4xdmkrR8hIV67l6-58" style="edgeStyle=orthogonalEdgeStyle;rounded=0;orthogonalLoop=1;jettySize=auto;html=1;exitX=0.5;exitY=0;exitDx=0;exitDy=0;" parent="1" source="f5VFy4xdmkrR8hIV67l6-54" target="f5VFy4xdmkrR8hIV67l6-21" edge="1">
          <mxGeometry relative="1" as="geometry">
            <Array as="points">
              <mxPoint x="380" y="620" />
              <mxPoint x="820" y="620" />
            </Array>
          </mxGeometry>
        </mxCell>
        <mxCell id="f5VFy4xdmkrR8hIV67l6-59" style="edgeStyle=orthogonalEdgeStyle;rounded=0;orthogonalLoop=1;jettySize=auto;html=1;exitX=0.5;exitY=0;exitDx=0;exitDy=0;" parent="1" source="f5VFy4xdmkrR8hIV67l6-54" target="f5VFy4xdmkrR8hIV67l6-26" edge="1">
          <mxGeometry relative="1" as="geometry" />
        </mxCell>
        <mxCell id="f5VFy4xdmkrR8hIV67l6-54" value="2" style="whiteSpace=wrap;html=1;aspect=fixed;fillColor=#e3c800;fontColor=#000000;strokeColor=#B09500;" parent="1" vertex="1">
          <mxGeometry x="360" y="640" width="40" height="40" as="geometry" />
        </mxCell>
        <mxCell id="f5VFy4xdmkrR8hIV67l6-65" value="How does AWS Batch Work" style="swimlane;whiteSpace=wrap;html=1;" parent="1" vertex="1">
          <mxGeometry x="40" y="40" width="1000" height="1040" as="geometry" />
        </mxCell>
        <mxCell id="f5VFy4xdmkrR8hIV67l6-67" value="2" style="whiteSpace=wrap;html=1;aspect=fixed;fillColor=#e3c800;fontColor=#000000;strokeColor=#B09500;" parent="f5VFy4xdmkrR8hIV67l6-65" vertex="1">
          <mxGeometry x="160" y="160" width="40" height="40" as="geometry" />
        </mxCell>
        <mxCell id="f5VFy4xdmkrR8hIV67l6-66" value="1" style="whiteSpace=wrap;html=1;aspect=fixed;fillColor=#1ba1e2;fontColor=#ffffff;strokeColor=#006EAF;" parent="f5VFy4xdmkrR8hIV67l6-65" vertex="1">
          <mxGeometry x="80" y="160" width="40" height="40" as="geometry" />
        </mxCell>
        <mxCell id="f5VFy4xdmkrR8hIV67l6-70" value="Job" style="swimlane;whiteSpace=wrap;html=1;" parent="f5VFy4xdmkrR8hIV67l6-65" vertex="1">
          <mxGeometry x="40" y="80" width="200" height="160" as="geometry" />
        </mxCell>
        <mxCell id="5hShdPY0TNmO3G2PRm8M-3" value="Computational Power" style="swimlane;whiteSpace=wrap;html=1;" vertex="1" parent="f5VFy4xdmkrR8hIV67l6-65">
          <mxGeometry x="280" y="80" width="200" height="160" as="geometry" />
        </mxCell>
        <mxCell id="5hShdPY0TNmO3G2PRm8M-1" value="&lt;font color=&quot;#000000&quot;&gt;Not Available&lt;/font&gt;" style="pointerEvents=1;shadow=0;dashed=0;html=1;strokeColor=#B20000;fillColor=#e51400;labelPosition=center;verticalLabelPosition=bottom;verticalAlign=top;align=center;outlineConnect=0;shape=mxgraph.veeam.cpu;fontColor=#ffffff;" vertex="1" parent="5hShdPY0TNmO3G2PRm8M-3">
          <mxGeometry x="40" y="80" width="40" height="40" as="geometry" />
        </mxCell>
        <mxCell id="5hShdPY0TNmO3G2PRm8M-2" value="Available" style="pointerEvents=1;shadow=0;dashed=0;html=1;strokeColor=#2D7600;fillColor=#60a917;labelPosition=center;verticalLabelPosition=bottom;verticalAlign=top;align=center;outlineConnect=0;shape=mxgraph.veeam.cpu;fontColor=#000000;" vertex="1" parent="5hShdPY0TNmO3G2PRm8M-3">
          <mxGeometry x="120" y="80" width="40" height="40" as="geometry" />
        </mxCell>
      </root>
    </mxGraphModel>
  </diagram>
</mxfile>
